<svg width="20" height="20" viewBox="0 0 20 20" fill="none" xmlns="http://www.w3.org/2000/svg">
  <path d="M18.1711 8.36788H17.5V8.33333H10V11.6667H14.6378C13.8691 13.6334 12.0854 15 10 15C7.23858 15 5 12.7614 5 10C5 7.23858 7.23858 5 10 5C11.2843 5 12.4564 5.48078 13.3624 6.26772L15.8252 3.80493C14.3422 2.44188 12.2634 1.66667 10 1.66667C5.3979 1.66667 1.66667 5.3979 1.66667 10C1.66667 14.6021 5.3979 18.3333 10 18.3333C14.6021 18.3333 18.3333 14.6021 18.3333 10C18.3333 9.43969 18.2746 8.89401 18.1711 8.36788Z" fill="#FFC107"/>
  <path d="M2.62744 6.12114L5.36912 8.12935C6.10693 6.29436 7.90024 5 10 5C11.2843 5 12.4564 5.48078 13.3624 6.26772L15.8252 3.80493C14.3422 2.44188 12.2634 1.66667 10 1.66667C6.84847 1.66667 4.12866 3.47391 2.62744 6.12114Z" fill="#FF3D00"/>
  <path d="M10 18.3333C12.2255 18.3333 14.2732 17.5882 15.7462 16.2747L13.0529 13.9876C12.1812 14.6335 11.1058 15 10 15C7.92849 15 6.15459 13.6509 5.37772 11.7016L2.52075 13.8856C3.99474 16.5782 6.74235 18.3333 10 18.3333Z" fill="#4CAF50"/>
  <path d="M18.1711 8.36788H17.5V8.33333H10V11.6667H14.6378C14.2743 12.5993 13.6743 13.4 12.9289 13.9875L12.9305 13.9863L15.6238 16.2734C15.4521 16.4292 18.3333 14.1667 18.3333 10C18.3333 9.43969 18.2746 8.89401 18.1711 8.36788Z" fill="#1976D2"/>
</svg>
