<svg xmlns="http://www.w3.org/2000/svg" width="180" height="38" viewBox="0 0 180 38">
  <defs>
    <linearGradient id="gradient" x1="0%" y1="0%" x2="100%" y2="0%">
      <stop offset="0%" style="stop-color:#DD88CF;stop-opacity:1" />
      <stop offset="100%" style="stop-color:#4B164C;stop-opacity:1" />
    </linearGradient>
  </defs>
  <path d="M21.6,8h4.8v22.4h-4.8V8z M2.4,8h5.2l13.2,14.8V8h4.8v22.4h-4.8L7.2,15v15.4H2.4V8z" fill="url(#gradient)"/>
  <path d="M50.8,25.6h-8.4l-1.6,4.8h-5.2L44,8h5.6l8.4,22.4h-5.6L50.8,25.6z M49.2,21.2l-2.6-7.6l-2.6,7.6H49.2z" fill="url(#gradient)"/>
  <path d="M73.2,30.8c-6.134,0-11.2-4.866-11.2-11c0-6.134,5.066-11,11.2-11c6.134,0,11.2,4.866,11.2,11C84.4,25.934,79.334,30.8,73.2,30.8z M73.2,13.6c-3.6,0-6.4,2.8-6.4,6.2c0,3.4,2.8,6.2,6.4,6.2c3.6,0,6.4-2.8,6.4-6.2C79.6,16.4,76.8,13.6,73.2,13.6z" fill="url(#gradient)"/>
  <path d="M100.4,8v4.8h-6v17.6h-4.8V12.8h-6V8H100.4z" fill="url(#gradient)"/>
  <path d="M110.8,30.8c-6.134,0-11.2-4.866-11.2-11c0-6.134,5.066-11,11.2-11c6.134,0,11.2,4.866,11.2,11C122,25.934,116.934,30.8,110.8,30.8z M110.8,13.6c-3.6,0-6.4,2.8-6.4,6.2c0,3.4,2.8,6.2,6.4,6.2c3.6,0,6.4-2.8,6.4-6.2C117.2,16.4,114.4,13.6,110.8,13.6z" fill="url(#gradient)"/>
  <path d="M124.4,8h4.8v22.4h-4.8V8z M140,25.6v4.8h-15.6V8h15.2v4.8h-10.4v4h9.2v4.4h-9.2v4.4H140z" fill="url(#gradient)"/>
  <path d="M147.2,30.4h-4.8V8h10c4.8,0,8,3.2,8,7.6c0,3.2-1.6,5.6-4.4,6.8l5.2,8h-5.6l-4.4-7.2h-4V30.4z M147.2,18.8h4.8c2,0,3.6-1.2,3.6-3.2c0-1.8-1.6-3.2-3.6-3.2h-4.8V18.8z" fill="url(#gradient)"/>
  <path d="M177.6,25.6h-8.4l-1.6,4.8h-5.2l8.4-22.4h5.6l8.4,22.4h-5.6L177.6,25.6z M176,21.2l-2.6-7.6l-2.6,7.6H176z" fill="url(#gradient)"/>
  <!-- Rocket icon -->
  <circle cx="29" cy="8" r="6" fill="url(#gradient)"/>
  <path d="M29,2c0,0-6,8-6,14c0,3.314,2.686,6,6,6c3.314,0,6-2.686,6-6C35,10,29,2,29,2z" fill="url(#gradient)"/>
  <circle cx="29" cy="14" r="2" fill="#ffffff"/>
</svg>
